<?xml version="1.0" standalone="no"?>
<!DOCTYPE svg PUBLIC "-//W3C//DTD SVG 20010904//EN"
 "http://www.w3.org/TR/2001/REC-SVG-20010904/DTD/svg10.dtd">
<svg version="1.0" xmlns="http://www.w3.org/2000/svg"
 width="429.000000pt" height="340.000000pt" viewBox="0 0 429.000000 340.000000"
 preserveAspectRatio="xMidYMid meet">

<g transform="translate(0.000000,340.000000) scale(0.100000,-0.100000)"
fill="#000000" stroke="none">
<path d="M0 1700 l0 -1700 2145 0 2145 0 0 1700 0 1700 -2145 0 -2145 0 0
-1700z m2015 860 c18 -11 51 -44 73 -73 l41 -52 75 1 74 0 41 51 c50 64 91 93
130 93 67 0 52 -60 -38 -154 -68 -71 -68 -71 -74 -138 -4 -38 -12 -78 -18 -90
-7 -12 -11 -49 -10 -83 1 -33 -5 -79 -13 -103 -14 -40 -14 -43 2 -48 53 -16
87 -40 90 -65 2 -20 -2 -28 -20 -33 -13 -3 -177 -6 -364 -6 -303 0 -343 2
-348 16 -12 31 -6 65 17 87 16 17 21 32 19 57 -11 108 32 186 128 233 58 29
73 32 157 32 l93 0 0 33 c0 27 -11 44 -63 96 -73 73 -100 121 -86 148 13 24
54 23 94 -2z m-945 -943 l0 -43 -49 0 c-57 0 -77 -13 -102 -69 -32 -70 -19
-173 28 -217 18 -17 35 -22 73 -21 l50 1 0 -38 c0 -32 -4 -39 -24 -44 -47 -12
-128 14 -168 53 -45 46 -61 102 -56 201 2 64 8 85 33 125 38 61 98 95 167 95
l48 0 0 -43z m160 -52 l0 -95 45 0 45 0 0 79 c0 104 3 111 51 111 l39 0 0
-240 0 -240 -40 0 -40 0 0 100 0 100 -50 0 -49 0 -3 -97 -3 -98 -40 0 -40 0
-3 238 -2 237 45 0 45 0 0 -95z m342 -75 c-3 -177 4 -212 44 -218 42 -6 49 20
54 207 l5 176 40 0 40 0 0 -190 c0 -165 -2 -194 -18 -223 -32 -59 -123 -80
-184 -42 -62 38 -67 55 -72 252 -2 98 -1 185 3 193 4 12 17 15 48 13 l43 -3
-3 -165z m466 128 l3 -38 -60 0 -61 0 0 -45 c0 -44 1 -45 33 -46 17 -1 41 -2
52 -3 16 -1 21 -9 23 -43 l3 -43 -55 0 -55 0 -3 -102 -3 -103 -42 -3 -43 -3 0
236 0 236 103 -3 102 -3 3 -37z m317 -2 c0 -40 0 -40 -41 -41 -80 -2 -124 -57
-124 -155 0 -102 41 -154 120 -152 l50 1 0 -38 c0 -33 -4 -40 -26 -45 -60 -15
-154 22 -192 77 -28 42 -45 128 -36 192 16 130 93 208 199 203 l50 -3 0 -39z
m158 -53 l-3 -93 50 0 49 0 3 93 3 92 43 3 42 3 -2 -238 -3 -238 -40 0 -40 0
-3 98 -3 97 -44 0 -44 0 -3 -97 -3 -98 -40 0 -40 0 -3 238 -2 238 42 -3 43 -3
-2 -92z m347 -77 c0 -153 2 -176 18 -196 21 -25 54 -21 68 8 5 9 11 94 14 187
l5 170 37 3 c30 3 37 -1 43 -19 4 -12 4 -103 0 -202 l-7 -180 -32 -34 c-40
-44 -103 -55 -160 -28 -63 30 -71 56 -74 258 -2 98 -1 185 2 193 3 9 20 14 46
14 l40 0 0 -174z m460 135 l0 -40 -52 -3 c-52 -3 -52 -4 -61 -41 -5 -21 -7
-40 -5 -42 2 -2 29 -6 58 -7 l55 -3 3 -42 3 -43 -55 0 c-65 0 -69 -6 -66 -113
3 -101 5 -97 -39 -97 -37 0 -39 2 -45 38 -8 48 -8 159 1 310 l6 122 99 0 98 0
0 -39z m-2152 -573 c4 -31 -12 -37 -27 -10 -6 9 -10 13 -10 7 -1 -5 8 -21 19
-35 23 -29 26 -63 6 -79 -20 -17 -46 -3 -46 25 0 28 17 33 22 7 2 -12 6 -14
11 -7 4 7 -2 23 -13 37 -20 25 -27 67 -13 81 17 17 48 0 51 -26z m43 5 l2 -28
4 28 c3 16 10 26 16 24 8 -2 12 -29 12 -75 0 -76 -17 -100 -24 -35 l-5 38 -5
-38 c-10 -66 -26 -46 -29 36 -2 64 0 77 13 77 9 0 16 -10 16 -27z m99 12 c0
-8 -7 -15 -15 -15 -8 0 -15 -4 -15 -10 0 -5 7 -10 15 -10 8 0 15 -7 15 -15 0
-8 -7 -15 -15 -15 -9 0 -15 -9 -15 -25 0 -16 6 -25 15 -25 8 0 15 -7 15 -15 0
-9 -9 -15 -25 -15 -25 0 -25 1 -25 80 0 79 0 80 25 80 16 0 25 -6 25 -15z m88
-62 c-2 -44 -7 -78 -13 -78 -6 0 -11 34 -13 78 -2 65 0 77 13 77 13 0 15 -12
13 -77z m70 43 c3 -24 1 -28 -13 -22 -16 6 -16 5 -1 -18 20 -31 21 -60 2 -75
-20 -17 -46 -3 -46 25 0 27 9 30 29 12 11 -11 11 -9 2 9 -6 12 -16 25 -21 28
-11 7 -14 58 -3 69 17 17 48 0 51 -28z m103 12 l2 -23 4 23 c2 12 11 22 19 22
12 0 14 -15 12 -77 -3 -65 -6 -78 -20 -81 -12 -2 -18 3 -19 15 -1 16 -2 17 -6
1 -2 -10 -11 -18 -19 -18 -11 0 -14 17 -14 80 0 73 2 80 20 80 14 0 20 -7 21
-22z m107 -49 c2 -50 -1 -69 -13 -79 -28 -23 -45 5 -45 75 0 68 4 77 35 73 17
-3 20 -11 23 -69z m87 61 c3 -6 -1 -13 -9 -16 -12 -5 -16 -21 -16 -71 0 -47
-3 -64 -12 -61 -8 3 -14 28 -16 66 -2 34 -7 62 -12 62 -6 0 -10 7 -10 15 0 17
65 22 75 5z m124 -4 c9 -10 9 -16 1 -21 -8 -5 -8 -10 0 -20 15 -18 -3 -29 -35
-21 -17 4 -23 12 -22 33 2 42 33 57 56 29z m71 -50 c0 -74 -17 -103 -51 -86
-20 11 -25 35 -10 45 6 3 14 -3 20 -12 8 -14 10 -2 11 50 0 53 3 67 15 67 12
0 15 -14 15 -64z m30 -1 c0 -37 4 -65 10 -65 6 0 10 28 10 65 0 62 13 85 27
49 5 -14 7 -14 14 -1 12 21 139 23 139 2 0 -8 -4 -15 -10 -15 -6 0 -10 -29
-10 -66 0 -48 -3 -65 -12 -62 -8 3 -14 28 -16 66 -2 44 -7 62 -16 62 -8 0 -17
-8 -21 -17 -6 -17 -7 -17 -21 1 -8 11 -14 16 -14 10 0 -5 9 -20 20 -34 23 -29
26 -63 6 -79 -16 -14 -46 -4 -46 15 0 20 -9 17 -30 -8 -15 -19 -20 -20 -34 -9
-12 10 -16 31 -16 82 0 39 4 69 10 69 6 0 10 -28 10 -65z m276 50 c10 -8 13
-15 7 -15 -7 0 -12 -10 -10 -22 2 -18 -3 -23 -23 -23 -15 0 -25 6 -25 15 0 8
-4 20 -8 27 -4 7 0 16 10 22 24 14 26 13 49 -4z m142 -57 c6 -40 8 -76 6 -80
-8 -13 -24 2 -24 23 0 26 -18 24 -22 -3 -2 -12 -9 -23 -17 -26 -11 -4 -12 5
-7 44 15 104 18 114 35 114 14 0 20 -15 29 -72z m130 48 c3 -14 0 -17 -12 -13
-9 4 -16 2 -16 -3 0 -6 7 -10 15 -10 21 0 21 -98 0 -106 -30 -12 -45 15 -45
81 0 34 3 65 7 69 13 13 48 1 51 -18z m42 -41 c0 -37 4 -65 10 -65 6 0 10 28
10 65 0 37 4 65 10 65 6 0 10 -31 10 -74 0 -56 -4 -75 -15 -80 -39 -15 -55 14
-55 102 0 40 4 52 15 52 12 0 15 -14 15 -65z m80 -16 c0 -60 -3 -80 -12 -77
-9 3 -14 31 -16 81 -2 64 0 77 13 77 12 0 15 -15 15 -81z m51 59 l2 -23 4 23
c2 12 11 22 19 22 12 0 14 -15 12 -77 -3 -65 -6 -78 -20 -81 -12 -2 -18 3 -19
15 -1 16 -2 17 -6 1 -2 -10 -11 -18 -19 -18 -11 0 -14 17 -14 80 0 73 2 80 20
80 14 0 20 -7 21 -22z m99 7 c0 -8 -7 -15 -15 -15 -8 0 -15 -4 -15 -10 0 -5 7
-10 15 -10 8 0 15 -7 15 -15 0 -8 -7 -15 -15 -15 -9 0 -15 -9 -15 -25 0 -16 6
-25 15 -25 8 0 15 -7 15 -15 0 -9 -9 -15 -25 -15 -25 0 -25 1 -25 80 0 79 0
80 25 80 16 0 25 -6 25 -15z m68 3 c7 -7 12 -31 12 -55 0 -32 -5 -45 -20 -53
-11 -6 -20 -18 -20 -26 0 -9 -6 -14 -12 -12 -9 3 -14 31 -16 81 -3 75 -2 77
21 77 12 0 28 -5 35 -12z m42 -68 c0 -47 -4 -80 -10 -80 -6 0 -10 33 -10 80 0
47 4 80 10 80 6 0 10 -33 10 -80z m78 56 c3 -15 0 -18 -17 -13 -12 3 -21 1
-21 -4 0 -5 9 -9 21 -9 18 0 20 -5 17 -46 -4 -57 -30 -81 -54 -50 -17 24 -19
117 -2 134 18 18 52 10 56 -12z m32 -122 c0 -8 -4 -12 -10 -9 -5 3 -10 10 -10
16 0 5 5 9 10 9 6 0 10 -7 10 -16z"/>
<path d="M1950 2535 c0 -9 34 -50 76 -92 l75 -77 3 -67 c3 -74 23 -119 68
-152 35 -26 67 -14 103 41 20 31 26 54 29 110 l3 71 55 53 c58 57 98 105 98
119 0 5 -8 9 -19 9 -18 0 -81 -62 -131 -129 -25 -33 -26 -33 -66 -21 -33 10
-49 10 -80 0 -37 -13 -38 -12 -63 21 -71 95 -151 156 -151 114z"/>
<path d="M1903 2249 c-119 -23 -183 -95 -183 -207 0 -40 24 -99 52 -129 21
-22 27 -23 187 -22 91 1 158 3 149 6 -16 4 -16 7 -3 33 8 16 15 40 15 53 0 32
-49 84 -86 92 -47 11 -54 14 -54 25 0 15 57 12 88 -4 55 -28 77 -63 77 -120 0
-50 2 -53 36 -69 24 -11 60 -17 110 -17 72 1 74 1 53 18 -12 10 -47 24 -79 31
l-57 13 30 29 c29 29 42 65 42 121 0 30 0 30 -25 14 -28 -18 -67 -21 -95 -6
-26 14 -80 94 -80 118 0 29 -86 39 -177 21z"/>
<path d="M1692 1938 c-7 -7 -12 -20 -12 -30 0 -14 8 -18 35 -18 l36 0 -23 30
c-26 35 -21 33 -36 18z"/>
<path d="M2040 1008 c0 -18 5 -28 15 -28 8 0 15 -8 16 -17 0 -11 3 -13 6 -5 2
7 -5 27 -16 45 l-21 32 0 -27z"/>
<path d="M2512 975 c0 -16 2 -22 5 -12 2 9 2 23 0 30 -3 6 -5 -1 -5 -18z"/>
<path d="M2853 1015 c0 -22 2 -30 4 -17 2 12 2 30 0 40 -3 9 -5 -1 -4 -23z"/>
<path d="M2962 975 c0 -16 2 -22 5 -12 2 9 2 23 0 30 -3 6 -5 -1 -5 -18z"/>
</g>
</svg>
